<?xml version="1.0" encoding="UTF-8" standalone="no"?>
<!-- Created with Inkscape (http://www.inkscape.org/) -->

<svg
   xmlns:dc="http://purl.org/dc/elements/1.1/"
   xmlns:cc="http://creativecommons.org/ns#"
   xmlns:rdf="http://www.w3.org/1999/02/22-rdf-syntax-ns#"
   xmlns:svg="http://www.w3.org/2000/svg"
   xmlns="http://www.w3.org/2000/svg"
   xmlns:sodipodi="http://sodipodi.sourceforge.net/DTD/sodipodi-0.dtd"
   xmlns:inkscape="http://www.inkscape.org/namespaces/inkscape"
   width="447.29999"
   height="580.40002"
   id="svg2"
   version="1.1"
   inkscape:version="0.48.4 r9939"
   sodipodi:docname="Новый документ 1">
  <defs
     id="defs4">
 <style
   id="style2989"
   type="text/css">
   
    .fil1 {fill:#2D4287}
    .fil3 {fill:#912747}
    .fil0 {fill:#B0ADB9}
    .fil2 {fill:#FEFEFE}
   
  </style>

  </defs>
  <sodipodi:namedview
     id="base"
     pagecolor="#ffffff"
     bordercolor="#666666"
     borderopacity="1.0"
     inkscape:pageopacity="0.0"
     inkscape:pageshadow="2"
     inkscape:zoom="0.70710678"
     inkscape:cx="282.19494"
     inkscape:cy="122.56118"
     inkscape:document-units="px"
     inkscape:current-layer="layer1"
     showgrid="false"
     inkscape:window-width="1366"
     inkscape:window-height="705"
     inkscape:window-x="-8"
     inkscape:window-y="-8"
     inkscape:window-maximized="1" />
  <metadata
     id="metadata7">
    <rdf:RDF>
      <cc:Work
         rdf:about="">
        <dc:format>image/svg+xml</dc:format>
        <dc:type
           rdf:resource="http://purl.org/dc/dcmitype/StillImage" />
        <dc:title></dc:title>
      </cc:Work>
    </rdf:RDF>
  </metadata>
  <g
     inkscape:label="Layer 1"
     inkscape:groupmode="layer"
     id="layer1"
     transform="translate(0,-471.96218)">
    <g
       style="fill-rule:evenodd"
       id="g3096"
       transform="matrix(3.543307,0,0,3.543307,-0.07709725,-0.00191757)">
      <g
         id="Слой_x0020_1">
  <metadata
   id="CorelCorpID_0Corel-Layer" />

  <path
   id="path2993"
   d="m 60.8337,140.126 c 0.9101,-2.2684 1.4252,-4.6708 2.3741,-6.9251 0.8891,2.272 1.39,4.678 2.3425,6.9216 2.4377,-0.0601 4.8754,-0.0388 7.3131,-0.0424 -1.8804,1.644 -3.9688,3.0339 -5.9585,4.5439 0.7303,2.3706 1.5773,4.706 2.2719,7.0909 -2.1131,-1.242 -3.9617,-2.8822 -5.9796,-4.2652 -2.0249,1.3864 -3.8805,3.0232 -5.9866,4.2793 0.6633,-2.4025 1.5981,-4.7237 2.2754,-7.1227 -2.0285,-1.4604 -4.0569,-2.921 -6.0148,-4.4731 2.4518,-0.0954 4.9106,-0.0741 7.3624,-0.007 l 1e-4,-1e-4 z"
   class="fil0"
   inkscape:connector-curvature="0"
   style="fill:#b0adb9" />

  <path
   id="path2995"
   d="m 46.6908,184.008 c 5.5104,-11.1376 10.9114,-22.3345 16.51,-33.4258 5.4645,11.1546 10.9537,22.2954 16.4535,33.4325 11.8992,-1.591 23.7984,-3.1538 35.6976,-4.7095 -8.7241,11.504 -17.4378,23.0222 -26.144,34.544 -1.337,0.141 -2.6674,0.3069 -4.0009,0.4621 -2.0672,5.7682 -6.4381,10.668 -11.9591,13.3315 -5.2458,2.5893 -11.4724,3.1224 -17.0674,1.3867 -7.0238,-2.05 -12.8552,-7.6203 -15.3564,-14.4818 -1.2488,-0.4234 -2.7658,-0.2435 -3.87,-0.9596 -8.6889,-11.3947 -17.2896,-22.867 -25.9714,-34.2653 11.9063,1.5134 23.8055,3.1221 35.7081,4.6852 l 0,0 z"
   class="fil1"
   inkscape:connector-curvature="0"
   style="fill:#2d4287" />

  <path
   id="path2997"
   d="m 63.1267,153.344 c 5.5351,10.9148 10.7915,21.9851 16.2948,32.9176 0.448,-0.3422 0.6667,-1.0407 1.2594,-1.1571 10.6328,-1.4005 21.269,-2.8116 31.9052,-4.2086 -7.8211,10.3998 -15.7127,20.7504 -23.5479,31.1432 -0.2363,0.2363 -0.4021,0.635 -0.7796,0.6738 -1.2912,0.2716 -2.7408,0.0917 -3.9441,0.568 -0.9454,2.4377 -2.0598,4.833 -3.7183,6.8756 -3.2984,4.2333 -8.1527,7.2496 -13.4337,8.2374 -6.5158,1.3127 -13.5785,-0.5535 -18.6196,-4.8825 -3.1151,-2.5961 -5.394,-6.0889 -6.7945,-9.8777 -1.1324,-0.7656 -2.914,-0.3422 -4.0782,-1.1254 -8.0044,-10.4987 -15.9348,-21.0608 -23.9254,-31.5736 10.7317,1.3264 21.4454,2.8116 32.1663,4.2122 0.3916,0.3456 0.6668,0.8011 0.9843,1.217 5.394,-11.0173 10.8585,-21.9956 16.2313,-33.0199 l 0,0 z"
   class="fil2"
   inkscape:connector-curvature="0"
   style="fill:#fefefe" />

  <path
   id="path2999"
   d="m 63.0632,157.673 0.1835,-0.0176 c 4.4697,8.9747 8.8617,17.9952 13.3032,26.984 0.2187,0.4973 0.5538,0.963 0.6279,1.5134 -0.1763,0.5573 -0.5044,1.0513 -0.8322,1.531 -4.9568,-3.5807 -11.4233,-4.96 -17.417,-3.7994 -3.2702,0.5715 -6.3394,1.9759 -9.0769,3.828 -0.247,-0.7342 -1.0055,-1.5138 -0.4728,-2.2931 4.5861,-9.2361 9.1088,-18.5069 13.6843,-27.7462 l 0,-1e-4 z"
   class="fil3"
   inkscape:connector-curvature="0"
   style="fill:#912747" />

  <path
   id="path3001"
   d="m 29.8352,158.947 c 4.4202,0.0142 8.8475,-0.0247 13.2713,0.0247 -0.8572,0.8678 -1.8097,1.6299 -2.7128,2.4412 1.9332,-0.127 4.0075,0.2329 5.468,1.5946 2.8611,2.4976 3.101,7.694 -0.0635,10.0435 -1.5627,1.2523 -3.6618,1.0019 -5.5315,1.0054 0.9066,1.0689 1.9191,2.0391 2.854,3.0868 -4.4521,0.0282 -8.9007,0.0141 -13.3526,0 0.9561,-1.016 1.9474,-2.0037 2.8469,-3.0762 -1.8204,-0.0494 -3.8842,0.2752 -5.4223,-0.9313 -2.7128,-1.8486 -3.1431,-5.8773 -1.4851,-8.5653 0.8537,-1.436 2.2402,-2.5118 3.8452,-2.9706 0.2682,0.2012 0.5398,0.4093 0.8079,0.6139 -2.9175,0.2787 -5.0341,3.1821 -4.8965,6.0185 -0.0777,2.24 1.4428,4.6107 3.7288,5.0375 1.6793,0.2646 3.3903,0.0706 5.0836,0.1341 -0.9526,1.0336 -1.9474,2.0249 -2.8999,3.0586 3.3867,0.014 6.7698,-0.0141 10.1529,0.0176 -0.9454,-1.0231 -1.8909,-2.0496 -2.8151,-3.0903 2.3248,-0.1409 5.1082,0.5821 6.9991,-1.1748 2.734,-2.5083 1.9755,-7.5176 -1.1924,-9.3309 -1.7674,-1.076 -3.9158,-0.6737 -5.8773,-0.776 0.882,-0.8469 1.8098,-1.6406 2.7235,-2.4519 -3.2703,-0.0282 -6.5405,0.0247 -9.8073,-0.0246 0.8609,0.829 1.7322,1.6438 2.5929,2.4729 -1.3511,-0.1694 -3.062,0.5574 -4.0922,-0.6208 0.7903,-0.039 1.5875,-0.0601 2.3812,-0.0741 -0.8783,-0.8116 -1.7602,-1.6194 -2.6068,-2.4624 l 0,-1e-4 z"
   class="fil1"
   inkscape:connector-curvature="0"
   style="fill:#2d4287" />

  <path
   id="path3003"
   d="m 81.1713,159.299 c 7.4648,-0.0178 14.9331,0.007 22.3982,-0.0107 -2.9672,2.5788 -5.9447,5.1506 -8.9009,7.7436 3.1891,3.3864 6.417,6.7344 9.5814,10.1492 -7.68,0.0459 -15.3599,-0.0317 -23.0399,0.0388 0.6949,-1.8309 1.8591,-3.4427 2.6423,-5.2352 0.0882,-2.5436 0.0779,-5.1046 0.0035,-7.6517 -0.7902,-1.7287 -1.8309,-3.3337 -2.6846,-5.034 l 0,0 z"
   class="fil1"
   inkscape:connector-curvature="0"
   style="fill:#2d4287" />

  <path
   id="path3005"
   d="m 82.2967,159.97 c 3.115,0.007 6.23,-0.007 9.345,0.0142 -0.769,1.4322 -1.658,2.8186 -2.2648,4.332 0,0.2046 0.0074,0.6103 0.0074,0.8149 1.3155,-0.5891 2.3985,-1.577 3.5137,-2.4694 -0.0075,-0.8996 0.0141,-1.7992 0.056,-2.6953 2.9281,0.0212 5.8562,0 8.7807,0.0142 -2.6882,2.3178 -5.3689,4.6496 -8.0469,6.985 2.974,3.2101 6.0114,6.357 9.0139,9.5355 -6.8196,0.007 -13.6353,0 -20.4545,0.004 0.7797,-1.45 1.6299,-2.8681 2.2896,-4.378 0.0459,-2.6988 0.1129,-5.4116 -0.0353,-8.1067 -0.6734,-1.3794 -1.4852,-2.6916 -2.2049,-4.0498 l 1e-4,-1e-4 z"
   class="fil2"
   inkscape:connector-curvature="0"
   style="fill:#fefefe" />

  <path
   id="path3007"
   d="m 33.2219,160.305 c 2.1341,-0.0106 4.2649,-0.021 6.3957,0 -0.8537,0.8536 -1.778,1.6299 -2.6529,2.4624 2.6776,0.2223 5.9372,-0.769 8.0786,1.3406 2.5365,2.2331 2.2754,7.2601 -1.1571,8.463 -2.2154,0.3669 -4.4909,0.0741 -6.731,0.1764 0.9701,1.0089 1.9297,2.0356 2.8892,3.0551 -2.3812,0.0211 -4.7624,0.0282 -7.1436,0.007 0.9031,-1.0583 1.9049,-2.0249 2.8327,-3.0621 -2.2013,-0.0812 -4.4239,0.1517 -6.6146,-0.1411 -2.1484,-0.5645 -3.2878,-2.9951 -2.9809,-5.0869 0.2011,-2.3779 2.1589,-4.6356 4.6249,-4.7343 1.6721,-0.0706 3.3514,0.0105 5.027,-0.0424 -0.8714,-0.7972 -1.7567,-1.5804 -2.568,-2.4377 l 0,0 z"
   class="fil1"
   inkscape:connector-curvature="0"
   style="fill:#2d4287" />

  <path
   id="path3009"
   d="m 93.5714,160.626 c 2.1132,0 4.2298,0.007 6.343,-0.0105 -2.2895,2.1837 -4.7449,4.1874 -7.1297,6.2689 2.6953,3.0654 5.6339,5.9124 8.3538,8.9569 -2.8257,0.007 -5.6515,0.0282 -8.4769,-0.0141 0.5077,-1.0549 0.998,-2.1167 1.506,-3.168 -1.2523,-1.143 -2.3879,-2.4091 -3.6795,-3.5031 -0.5538,-0.2151 -1.1779,-0.0952 -1.7603,-0.1446 0.0212,1.143 -0.0529,2.2895 0.0353,3.429 0.4974,1.1888 1.2453,2.2543 1.8485,3.3902 -2.4236,0.0352 -4.8507,0.0247 -7.2778,0.007 0.6244,-1.2242 1.4041,-2.3813 1.8732,-3.6795 0.0071,-2.727 0.0741,-5.4609 -0.0246,-8.1843 -0.501,-1.1643 -1.2277,-2.2155 -1.7922,-3.348 2.3848,0.004 4.7735,-0.003 7.1579,0.004 -0.7655,1.6193 -2.1449,3.1009 -1.8521,5.0236 0.4445,-0.003 0.8925,-0.003 1.3406,-0.003 1.1324,-0.8433 2.2722,-1.6793 3.4149,-2.5084 0.0141,-0.8396 0.0458,-1.6791 0.1199,-2.5153 l 0,0 z"
   class="fil1"
   inkscape:connector-curvature="0"
   style="fill:#2d4287" />

  <path
   id="path3011"
   d="m 90.4494,163.66 c 0.5856,-1.1218 1.1853,-2.2401 1.8026,-3.3442 -0.0952,0.7018 0.0671,1.4744 -0.2152,2.1413 -0.4762,0.4655 -1.0407,0.829 -1.5875,1.203 l 1e-4,-1e-4 z"
   class="fil2"
   inkscape:connector-curvature="0"
   style="fill:#fefefe" />

  <path
   id="path3013"
   d="m 29.5423,165.963 c 0.9137,-2.0284 3.5207,-1.097 5.2493,-1.2805 0.0282,2.0531 0.0107,4.1063 0.0036,6.163 -1.3547,-0.0389 -2.7199,0.0811 -4.064,-0.1059 -1.838,-0.7162 -1.7005,-3.2278 -1.1889,-4.7766 l 0,0 z"
   class="fil2"
   inkscape:connector-curvature="0"
   style="fill:#fefefe" />

  <path
   id="path3015"
   d="m 38.0477,164.668 c 1.33,0.0565 2.6882,-0.1374 4.0005,0.1165 1.4147,0.4444 1.6298,2.152 1.5593,3.4221 -0.0035,1.0263 -0.4375,2.2434 -1.5346,2.5327 -1.3335,0.2011 -2.6917,0.067 -4.0358,0.0882 0,-2.0532 -0.0141,-4.1062 0.0106,-6.1594 l 0,-1e-4 z"
   class="fil2"
   inkscape:connector-curvature="0"
   style="fill:#fefefe" />

  <path
   id="path3017"
   d="m 30.3395,165.833 c 1.002,-0.9524 2.5647,-0.3667 3.8065,-0.5219 0.0036,1.6262 -0.0035,3.249 0.0107,4.8753 -1.2489,-0.1658 -2.7976,0.4127 -3.8313,-0.4728 -0.6632,-1.1501 -0.6138,-2.7233 0.0141,-3.8805 l 0,-1e-4 z"
   class="fil1"
   inkscape:connector-curvature="0"
   style="fill:#2d4287" />

  <path
   id="path3019"
   d="m 38.6968,165.311 c 1.2912,0.1974 3.2068,-0.5856 3.9864,0.8326 0.3281,1.238 0.6174,3.0584 -0.5891,3.9192 -1.1113,0.2398 -2.2684,0.0882 -3.3973,0.1164 -0.0035,-1.6228 -0.007,-3.2455 0,-4.8682 l 0,0 z"
   class="fil1"
   inkscape:connector-curvature="0"
   style="fill:#2d4287" />

  <path
   id="path3021"
   d="m 39.4059,166.03 c 0.8185,0.0459 1.6933,-0.1553 2.473,0.1729 0.5327,1.0089 0.4445,2.2894 -0.0635,3.2913 -0.8079,-0.004 -1.6122,-0.004 -2.413,0.007 0.0035,-1.1572 0.007,-2.3142 0.0035,-3.4713 l 0,0 z"
   class="fil2"
   inkscape:connector-curvature="0"
   style="fill:#fefefe" />

  <path
   id="path3023"
   d="m 30.9393,166.221 c 0.7373,-0.3599 1.644,-0.1199 2.4448,-0.2152 0.0564,1.1606 0.0493,2.3248 0.0493,3.4889 -0.8255,0 -1.6545,-0.0106 -2.48,-0.0353 -0.4163,-1.0158 -0.5221,-2.2364 -0.0141,-3.2384 z"
   class="fil2"
   inkscape:connector-curvature="0"
   style="fill:#fefefe" />

  <path
   id="path3025"
   d="m 89.3804,169.65 c 0.4621,-0.0212 0.9102,0.1059 1.2206,0.4728 0.949,0.8748 1.856,1.7956 2.7976,2.6849 -0.5927,1.1779 -1.118,2.3845 -1.6616,3.5874 -0.8608,-1.2629 -1.5911,-2.614 -2.2786,-3.9758 -0.2297,-0.8961 -0.0741,-1.8485 -0.078,-2.7693 l 0,0 z"
   class="fil1"
   inkscape:connector-curvature="0"
   style="fill:#2d4287" />

  <path
   id="path3027"
   d="m 90.0507,170.595 c 0.8255,0.7656 1.6298,1.5558 2.4518,2.3249 -0.2646,0.6702 -0.5574,1.3335 -0.8537,1.9932 -0.7232,-1.3653 -1.8874,-2.6564 -1.5981,-4.318 l 0,-1e-4 z"
   class="fil2"
   inkscape:connector-curvature="0"
   style="fill:#fefefe" />

  <path
   id="path3029"
   d="m 84.632,231.933 c 13.7196,-17.6107 27.4073,-35.2496 41.1057,-52.8779 0.1835,0.2539 0.3496,0.5221 0.4978,0.8008 -0.3602,0.9877 -0.9388,1.8803 -1.3515,2.8469 -0.2434,0.0458 -0.7338,0.1376 -0.9772,0.1835 l 0.1447,-0.5786 c -1.2842,1.5592 -2.1975,3.3479 -3.0975,5.1403 -9.3803,14.8445 -18.8454,29.6365 -28.2575,44.4641 1.4994,0.0142 2.9986,0.0142 4.4979,0.007 3.6336,-6.6322 7.239,-13.2817 10.8515,-19.9248 5.2423,-9.7262 10.6292,-19.3781 15.7939,-29.1465 0.2081,0.1833 0.4162,0.3633 0.6244,0.5468 -8.897,16.136 -17.586,32.3885 -26.4619,48.5387 3.549,-0.0177 7.0979,0.0282 10.6433,-0.035 0.0636,3.1605 0.004,6.325 0.0176,9.4894 3.8207,0.0282 7.6377,-0.007 11.4583,0.0141 -1.1218,6.1101 -2.1661,12.2347 -3.2205,18.355 -8.5834,0.0533 -17.1701,0.004 -25.7567,0.0212 0.5221,-2.7411 0.9454,-5.4959 1.4781,-8.2374 -1.7603,-0.007 -3.5207,-0.0282 -5.2807,0.0177 -6.1387,11.3947 -12.3617,22.7471 -18.5318,34.1277 -2.1201,3.7574 -3.9722,7.6694 -6.3006,11.303 l -0.1516,0 c -8.0787,-15.1483 -16.122,-30.3138 -24.2112,-45.4519 -1.4852,-0.003 -2.9668,-0.003 -4.452,0.0109 0.5716,2.7302 0.9348,5.496 1.4993,8.2229 -8.5796,0.0212 -17.1626,-0.003 -25.7423,0.007 -1.0865,-6.1274 -2.1342,-12.2661 -3.2349,-18.3938 3.0975,0.0141 6.1948,0.0282 9.2887,-0.007 -0.0354,-3.1542 -0.0176,-6.3042 -0.0142,-9.4584 4.0746,0.0215 8.1492,0.0142 12.2203,0.004 -8.4773,-15.9735 -17.0003,-31.9264 -25.4847,-47.9002 -0.7655,-1.4817 -1.6933,-2.8928 -2.2049,-4.4944 5.1189,6.4064 10.0719,12.9505 15.1378,19.3993 8.5373,11.0066 17.099,21.9957 25.6363,33.0023 14.612,-0.003 29.2241,-0.003 43.8361,0.004 l 0,0 z"
   class="fil1"
   inkscape:connector-curvature="0"
   style="fill:#2d4287" />

  <path
   id="path3031"
   d="m 17.2762,183.211 c 9.2251,1.2029 18.4467,2.4448 27.6718,3.6301 0.7338,1.0583 1.4323,2.1414 2.1273,3.2244 -5.5033,5.3657 -8.0857,13.5819 -6.3959,21.1102 -0.5362,-0.1059 -1.15,-0.1235 -1.4358,-0.6738 -7.32,-9.0982 -14.6156,-18.2174 -21.9674,-27.2909 l 0,0 z"
   class="fil3"
   inkscape:connector-curvature="0"
   style="fill:#912747" />

  <path
   id="path3033"
   d="m 81.4994,186.855 c 9.1757,-1.2453 18.3585,-2.4377 27.5413,-3.6442 -7.0238,8.6854 -14.0017,17.4061 -21.0114,26.0985 -0.6735,0.769 -1.1783,1.9191 -2.3778,1.8838 1.6193,-7.5459 -0.8501,-15.7762 -6.417,-21.1314 0.7938,-1.0372 1.3265,-2.3001 2.2649,-3.2067 l 0,0 z"
   class="fil3"
   inkscape:connector-curvature="0"
   style="fill:#912747" />

  <path
   id="path3035"
   d="m 58.4348,186.431 c 4.96,-1.1888 10.3751,-0.4656 14.8099,2.0748 4.0919,2.2961 7.3092,6.0815 8.9532,10.4736 1.7427,4.5931 1.8873,9.8319 0.1622,14.4533 -1.6968,4.6496 -5.1929,8.6011 -9.5705,10.9008 -4.4979,2.4342 -9.9275,3.0201 -14.8699,1.7463 -5.3375,-1.3829 -10.0224,-5.0518 -12.6824,-9.8743 -2.3142,-4.124 -3.1926,-9.077 -2.2719,-13.7301 1.584,-7.6905 7.8811,-14.1182 15.4693,-16.0443 l 1e-4,-10e-5 z"
   class="fil1"
   inkscape:connector-curvature="0"
   style="fill:#2d4287" />

  <path
   id="path3037"
   d="m 66.7744,186.932 c 5.1435,0.9736 9.8284,4.0287 12.7353,8.3855 -1.2171,0.007 -2.4307,0.007 -3.6477,0.0389 -1.0372,-1.6229 -2.5683,-2.8293 -4.1025,-3.9441 -0.9951,-0.695 -2.0253,-1.4111 -3.2459,-1.6369 -0.5997,-0.9349 -1.1712,-1.8874 -1.7392,-2.8434 l 0,0 z"
   class="fil2"
   inkscape:connector-curvature="0"
   style="fill:#fefefe" />

  <path
   id="path3039"
   d="m 47.1811,194.898 c 2.6353,-3.4184 6.2407,-6.1418 10.3893,-7.4224 -0.2751,0.9454 -0.5503,1.8874 -0.8396,2.8293 -2.3636,0.7973 -4.5014,2.166 -6.3147,3.8664 -0.9878,0.4833 -2.1696,0.448 -3.235,0.7267 l 0,0 z"
   class="fil2"
   inkscape:connector-curvature="0"
   style="fill:#fefefe" />

  <path
   id="path3041"
   d="m 63.0385,193.049 c 1.7357,-0.8678 3.5034,-1.6757 5.2141,-2.5929 1.7815,0.388 3.1855,1.6298 4.579,2.7234 0.9984,0.769 1.8242,1.7286 2.5471,2.7587 0.0568,1.9403 0.127,3.8841 0.134,5.8279 -2.1484,0.6244 -4.3106,1.2665 -6.3249,2.2578 -1.7995,-1.4429 -3.6587,-2.8116 -5.4367,-4.2757 -0.5327,-2.166 -0.4551,-4.4767 -0.7126,-6.6992 l 0,0 z"
   class="fil2"
   inkscape:connector-curvature="0"
   style="fill:#fefefe" />

  <path
   id="path3043"
   d="m 7.8253,190.781 c 1.3546,1.5063 2.5011,3.1785 3.7607,4.7625 9.4331,12.1144 18.8276,24.268 28.2926,36.3608 -2.0037,0.0247 -4.0075,0.0177 -6.0113,0.0106 C 25.1891,218.2024 16.5249,204.4794 7.8253,190.781 l 0,0 z"
   class="fil2"
   inkscape:connector-curvature="0"
   style="fill:#fefefe" />

  <path
   id="path3045"
   d="m 50.9735,194.768 c 1.5205,-1.5946 3.4537,-2.7975 5.5174,-3.5489 1.9756,0.515 3.8771,1.2876 5.8209,1.9085 0.0882,2.1731 0.3528,4.3321 0.5115,6.5017 -1.8944,1.2947 -3.7924,2.5929 -5.6691,3.9158 -2.1167,-0.6597 -4.184,-1.464 -6.2336,-2.3107 -0.0635,-2.1555 0.0423,-4.3109 0.0529,-6.4664 l 0,0 z"
   class="fil2"
   inkscape:connector-curvature="0"
   style="fill:#fefefe" />

  <path
   id="path3047"
   d="m 47.1071,205.46 c 1.1677,-1.1889 2.3283,-2.3883 3.4395,-3.6301 2.0391,1.0019 4.2122,1.6792 6.3324,2.4765 0.6103,2.2578 1.2135,4.5191 1.9085,6.7487 -1.5134,1.7568 -2.9139,3.6265 -4.0534,5.6515 -1.9367,-0.4936 -3.877,-0.9878 -5.8208,-1.4535 -1.6828,-2.9348 -1.8062,-6.4876 -1.8062,-9.7931 l 0,0 z"
   class="fil2"
   inkscape:connector-curvature="0"
   style="fill:#fefefe" />

  <path
   id="path3049"
   d="m 69.385,204.744 c 2.0817,-0.9525 4.258,-1.7038 6.4734,-2.2718 1.1607,1.3723 2.3425,2.7234 3.4996,4.0993 -0.0846,3.242 -1.1959,6.5546 -3.6654,8.763 -1.8273,0.4377 -3.6477,0.8928 -5.4574,1.3938 -1.1607,-1.7043 -2.0991,-3.5493 -3.2491,-5.2603 0.7655,-2.2543 1.591,-4.4873 2.3989,-6.7239 l 0,-1e-4 z"
   class="fil2"
   inkscape:connector-curvature="0"
   style="fill:#fefefe" />

  <path
   id="path3051"
   d="m 43.6216,202.991 c 0.9208,0.8573 1.8344,1.7216 2.787,2.5506 -0.1482,3.4925 0.201,7.1967 1.9085,10.2976 -0.0282,1.0231 -0.2364,2.0285 -0.4022,3.0374 -3.5278,-4.4097 -5.2599,-10.2834 -4.2933,-15.8855 l 0,-10e-5 z"
   class="fil2"
   inkscape:connector-curvature="0"
   style="fill:#fefefe" />

  <path
   id="path3053"
   d="m 80.0389,206.564 c 0.8537,-0.9525 1.725,-1.8874 2.6246,-2.794 0.7762,5.6621 -0.9948,11.7087 -5.0024,15.8256 -0.4727,-1.3053 -0.8572,-2.6423 -1.2982,-3.9578 2.5859,-2.2123 3.7112,-5.7506 3.676,-9.0738 l 0,0 z"
   class="fil2"
   inkscape:connector-curvature="0"
   style="fill:#fefefe" />

  <path
   id="path3055"
   d="m 59.359,211.599 c 2.3319,0.0353 4.6884,0.0953 7.0168,0.2858 1.1289,1.7356 2.1096,3.5666 3.2388,5.3058 -0.8082,1.3511 -1.5526,2.734 -2.353,4.0887 -0.4692,0.9983 -1.7396,0.9489 -2.6638,1.1465 -1.9473,0.1379 -4.1064,0.3104 -5.8632,-0.6809 -1.2171,-1.4287 -2.1625,-3.0656 -3.3337,-4.5328 1.0054,-2.0536 2.4059,-3.9374 3.9581,-5.6131 l 0,0 z"
   class="fil2"
   inkscape:connector-curvature="0"
   style="fill:#fefefe" />

  <path
   id="path3057"
   d="m 55.355,224.408 c 0.8396,-0.804 1.8485,-1.397 2.8081,-2.0496 2.5788,1.2594 5.6056,1.2276 8.322,0.4378 1.2383,0.6205 2.4624,1.2696 3.7007,1.8979 -4.7413,1.827 -10.1565,1.6859 -14.8308,-0.2861 l 0,0 z"
   class="fil2"
   inkscape:connector-curvature="0"
   style="fill:#fefefe" />

  <path
   id="path3059"
   d="m 16.3943,232.674 c 30.4835,0.0318 60.967,0.0244 91.447,0.007 0.1411,5.9972 0.0988,12.0019 0.0741,18.0026 -30.5396,0.0424 -61.08,0.0209 -91.62,0.0142 0.0565,-6.0082 -0.134,-12.0231 0.0989,-18.0235 l 0,0 z"
   class="fil3"
   inkscape:connector-curvature="0"
   style="fill:#912747" />

  <path
   id="path3061"
   d="m 67.1625,235.693 c 4.1169,-1.2947 8.636,2.7274 7.9974,6.9427 -0.2504,3.0868 -3.3372,5.2882 -6.297,5.2815 -2.8399,0.1301 -5.5986,-1.8878 -6.3994,-4.6003 -0.7938,-3.26 1.4922,-6.7948 4.699,-7.6238 l 0,-10e-5 z"
   class="fil2"
   inkscape:connector-curvature="0"
   style="fill:#fefefe" />

  <path
   id="path3063"
   d="m 23.4886,235.835 c 2.6636,0.0173 5.3304,0.0208 7.994,-0.007 -0.5009,0.7479 -1.0301,1.4746 -1.577,2.1908 0.8008,1.7571 1.51,3.556 2.2684,5.334 0.5326,1.5169 1.7181,2.794 3.0763,3.6092 -0.4022,0.1866 -0.7762,0.5183 -1.2559,0.4195 -2.3953,-0.0106 -4.7873,-0.0106 -7.1827,-0.0247 0.6985,-0.889 1.8487,-1.4954 2.279,-2.5397 -0.0564,-0.152 -0.1694,-0.4589 -0.2257,-0.6106 -1.3265,0.0247 -2.6529,0.0215 -3.9758,-0.007 -0.6773,1.3613 1.1853,2.1657 1.7744,3.1923 -2.1096,-0.053 -4.2227,-0.0141 -6.3323,-0.0283 0.8995,-1.2453 1.9932,-2.3883 2.5117,-3.8593 0.7092,-1.831 1.5417,-3.6121 2.2331,-5.4469 -0.3952,-0.8291 -1.0547,-1.4849 -1.5875,-2.2222 l 0,0 z"
   class="fil2"
   inkscape:connector-curvature="0"
   style="fill:#fefefe" />

  <path
   id="path3065"
   d="m 36.8024,238.421 c -0.6244,-0.8435 -1.2347,-1.6972 -1.8203,-2.5651 2.3459,0.0318 4.6919,0.0318 7.0414,0.004 -0.6738,1.2523 -2.0602,2.2436 -1.8732,3.81 1.4887,0.321 2.7269,-0.5751 3.8664,-1.3931 0.2293,-0.7695 0.0424,-1.6055 0.0776,-2.3993 1.9121,-0.004 3.8277,-0.007 5.7397,0 -1.6016,1.5455 -3.3478,2.9386 -4.886,4.5544 2.4589,2.8469 4.8049,5.789 7.2249,8.6712 -1.5557,0.0106 -3.1115,-0.0102 -4.6672,0.0247 -0.0035,-0.5856 -0.0071,-1.1712 -0.0106,-1.7529 -1.0901,0.003 -2.1802,0.003 -3.2667,0 0.0176,-0.7938 0.0423,-1.5843 0.0776,-2.3746 -0.7126,-0.9419 -1.4393,-1.8767 -2.1837,-2.7904 -0.642,-0.007 -1.2806,-0.0177 -1.9226,-0.0212 0.0141,0.8678 -0.0777,1.7466 0.0529,2.607 0.4515,0.9137 1.083,1.7255 1.6298,2.5859 -2.2542,0.0215 -4.512,-0.0635 -6.7627,0.0635 0.3316,-1.0121 1.0759,-1.7918 1.6016,-2.6952 0.187,-2.0952 0.0247,-4.2193 0.0811,-6.3285 l 0,0 z"
   class="fil2"
   inkscape:connector-curvature="0"
   style="fill:#fefefe" />

  <path
   id="path3067"
   d="m 50.081,235.841 c 3.81,0.0106 7.6235,-0.0106 11.4335,0.0106 0.0459,1.8521 0.134,3.7077 0.1658,5.5633 -0.8466,-1.1709 -1.7039,-2.3354 -2.5647,-3.4921 -0.5327,-1e-4 -1.0619,0.003 -1.5945,0.007 -0.0212,1.8026 0.0105,3.6092 -0.0106,5.4116 -0.3775,1.8559 1.6227,2.752 2.5505,4.0428 -2.8539,-0.0102 -5.7079,-0.007 -8.5619,0 0.8361,-0.8781 1.6722,-1.7639 2.4977,-2.6493 -0.0035,-2.2755 0,-4.5544 -0.0035,-6.8298 -0.5186,0.007 -1.0337,0.0106 -1.5523,0.018 -0.8537,1.1465 -1.6756,2.3212 -2.5646,3.4427 0.0494,-1.8411 0.1199,-3.683 0.2046,-5.5245 l 0,0 z"
   class="fil2"
   inkscape:connector-curvature="0"
   style="fill:#fefefe" />

  <path
   id="path3069"
   d="m 75.7001,235.835 c 4.4446,0.0208 8.8896,0.003 13.3314,0.0103 -0.0141,1.337 -0.0074,2.6775 0.0032,4.0146 -0.9525,-0.5853 -1.778,-1.3829 -2.7905,-1.8556 -1.5134,-0.0667 -3.0303,0.0105 -4.5402,-0.0318 -0.0067,0.8011 -0.0067,1.5984 -0.0141,2.3989 2.2754,0.0423 4.7413,-0.2117 6.8015,0.9599 2.346,1.3472 1.7008,5.8875 -1.2524,5.9157 -3.824,0.3069 -7.6799,0.0318 -11.5146,0.1482 0.822,-0.8855 1.6263,-1.7847 2.4694,-2.6494 0.0212,-2.1096 0.0039,-4.2192 -0.0035,-6.3288 -0.8396,-0.8537 -1.6683,-1.718 -2.4903,-2.582 l 1e-4,0 z"
   class="fil2"
   inkscape:connector-curvature="0"
   style="fill:#fefefe" />

  <path
   id="path3071"
   d="m 90.3403,235.841 c 4.4341,-0.004 8.865,0.0215 13.2994,-0.0141 0.0423,1.6722 0.0141,3.3408 0.0321,5.013 -0.9528,-0.9561 -1.6055,-2.2366 -2.6885,-3.0335 -1.5699,-0.0357 -3.1433,-0.0639 -4.7096,0.0564 0.0282,0.8078 0.0353,1.6192 0.0388,2.4303 0.8643,0.004 1.729,0.004 2.5968,0.0176 0.6452,-0.4692 1.2943,-0.9345 1.9505,-1.3896 -0.0388,1.7142 -0.0141,3.4287 -0.0494,5.1435 -0.6244,-0.4974 -1.2382,-1.0057 -1.8485,-1.5173 -0.8855,0 -1.7745,0.004 -2.66,0.0216 -0.0035,0.8219 -0.0106,1.6471 -0.0212,2.4726 1.6299,0.0176 3.2601,0.0282 4.8931,0.003 0.9066,-1.0725 1.7956,-2.1661 2.7164,-3.2276 -0.0247,1.8482 -0.0106,3.7003 -0.004,5.5489 -4.5155,-0.007 -9.0311,-0.004 -13.5463,0.0247 0.797,-0.9984 1.8835,-1.7745 2.5291,-2.8819 0.0318,-1.9262 0.0494,-3.8597 0,-5.7859 -0.6279,-1.1218 -1.7322,-1.887 -2.5291,-2.8822 l 0,0 z"
   class="fil2"
   inkscape:connector-curvature="0"
   style="fill:#fefefe" />

  <path
   id="path3073"
   d="m 67.8575,237.768 c 0.6314,-0.49 1.6051,-0.3563 2.1166,0.2438 0.7903,0.7863 1.0372,1.912 1.1959,2.9735 -1.591,-0.0208 -3.182,-0.003 -4.7766,-0.003 0.1344,-1.1783 0.4657,-2.4695 1.464,-3.2142 l 1e-4,0 z"
   class="fil3"
   inkscape:connector-curvature="0"
   style="fill:#912747" />

  <path
   id="path3075"
   d="m 26.7484,239.355 c 0.5503,0.9666 0.8748,2.0426 1.3511,3.048 -0.8502,0.0106 -1.7039,0.007 -2.5576,0.004 0.402,-1.0199 0.776,-2.0461 1.2065,-3.0519 l 0,0 z"
   class="fil3"
   inkscape:connector-curvature="0"
   style="fill:#912747" />

  <path
   id="path3077"
   d="m 7.1339,242.075 c 2.7693,0.0635 5.5421,-0.0106 8.3149,0.0356 -0.0634,3.0688 0.0211,6.1454 -0.0846,9.2142 1.2065,0.4234 2.4977,0.1553 3.7464,0.2152 4.6496,0.0533 9.3028,-0.1023 13.9524,0.0847 0.4515,2.4804 1.0654,4.953 1.1994,7.4718 -8.1421,-0.0384 -16.2806,0.0177 -24.4192,-0.0317 -0.2258,-3.0127 -1.0478,-5.9337 -1.4322,-8.9253 -0.3564,-2.6988 -1.1573,-5.334 -1.2771,-8.0645 l 0,0 z"
   class="fil3"
   inkscape:connector-curvature="0"
   style="fill:#912747" />

  <path
   id="path3079"
   d="m 108.723,242.093 c 3.5034,0.004 7.0061,0.0497 10.5127,-0.0103 -0.0917,1.8588 -0.635,3.6544 -0.9031,5.4889 -0.2011,1.4326 -0.3736,2.8716 -0.6703,4.2866 -0.5891,2.3773 -0.7444,4.8327 -1.2908,7.2178 -8.1354,-0.007 -16.2705,0.0565 -24.402,-0.0317 0.2787,-2.4875 0.9454,-4.9146 1.1465,-7.4122 4.1417,-0.2046 8.2903,-0.0318 12.4355,-0.0953 1.1148,-0.0596 2.293,0.1873 3.3478,-0.2787 -0.4762,-1.912 -0.0423,-3.8594 -0.0917,-5.7926 0.007,-1.1254 -0.1729,-2.2472 -0.0847,-3.3725 l 1e-4,0 z"
   class="fil3"
   inkscape:connector-curvature="0"
   style="fill:#912747" />

  <path
   id="path3081"
   d="m 66.404,242.763 c 1.5875,-0.0106 3.1785,-0.0772 4.7625,0.0533 -0.3633,1.1783 -0.8643,2.769 -2.3283,2.8889 -1.5628,0.007 -2.1978,-1.6581 -2.4342,-2.9422 l 0,0 z"
   class="fil3"
   inkscape:connector-curvature="0"
   style="fill:#912747" />

  <path
   id="path3083"
   d="m 81.7146,242.622 c 1.1292,0.0321 2.2648,-0.0776 3.3866,0.078 1.1042,0.2465 1.1113,2.1798 -0.0176,2.4444 -1.1042,0.2755 -2.2649,0.0741 -3.3902,0.1305 0,-0.8851 0.007,-1.7671 0.0212,-2.6529 l 0,0 z"
   class="fil3"
   inkscape:connector-curvature="0"
   style="fill:#912747" />

  <path
   id="path3085"
   d="m 46.2745,251.558 c 2.9457,-0.0177 5.8914,-0.0212 8.8371,-0.0103 2.3671,3.0477 4.7448,6.0886 7.1014,9.1472 0.0212,5.3308 0.0423,10.661 -0.0071,15.9914 -5.3445,-8.3538 -10.5939,-16.771 -15.9314,-25.1283 l 0,0 z"
   class="fil2"
   inkscape:connector-curvature="0"
   style="fill:#fefefe" />

  <path
   id="path3087"
   d="m 56.0606,251.551 c 4.4449,-0.0212 8.8864,-0.003 13.3279,-0.003 -2.2151,2.8501 -4.4591,5.6829 -6.6499,8.5549 -2.2436,-2.8363 -4.4309,-5.715 -6.678,-8.5517 l 0,0 z"
   class="fil2"
   inkscape:connector-curvature="0"
   style="fill:#fefefe" />

  <path
   id="path3089"
   d="m 80.1941,251.554 c 2.1167,-0.0176 4.2333,-0.007 6.35,-0.0176 -7.7431,14.2064 -15.4729,28.4127 -23.1881,42.6332 0.0953,-5.5806 0.254,-11.176 0.4269,-16.7464 5.401,-8.6603 10.9611,-17.2328 16.4112,-25.8692 l 0,0 z"
   class="fil2"
   inkscape:connector-curvature="0"
   style="fill:#fefefe" />

 </g>
    </g>
  </g>
</svg>
